<svg width="128" height="128" viewBox="0 0 128 128" fill="none" xmlns="http://www.w3.org/2000/svg">
<path d="M64 37.3333C49.28 37.3333 37.3334 49.28 37.3334 64C37.3334 78.72 49.28 90.6667 64 90.6667C78.72 90.6667 90.6667 78.72 90.6667 64C90.6667 49.28 78.72 37.3333 64 37.3333ZM10.6667 69.3333H21.3334C24.2667 69.3333 26.6667 66.9333 26.6667 64C26.6667 61.0667 24.2667 58.6667 21.3334 58.6667H10.6667C7.73337 58.6667 5.33337 61.0667 5.33337 64C5.33337 66.9333 7.73337 69.3333 10.6667 69.3333ZM106.667 69.3333H117.333C120.267 69.3333 122.667 66.9333 122.667 64C122.667 61.0667 120.267 58.6667 117.333 58.6667H106.667C103.733 58.6667 101.333 61.0667 101.333 64C101.333 66.9333 103.733 69.3333 106.667 69.3333ZM58.6667 10.6667V21.3333C58.6667 24.2667 61.0667 26.6667 64 26.6667C66.9334 26.6667 69.3334 24.2667 69.3334 21.3333V10.6667C69.3334 7.73334 66.9334 5.33334 64 5.33334C61.0667 5.33334 58.6667 7.73334 58.6667 10.6667ZM58.6667 106.667V117.333C58.6667 120.267 61.0667 122.667 64 122.667C66.9334 122.667 69.3334 120.267 69.3334 117.333V106.667C69.3334 103.733 66.9334 101.333 64 101.333C61.0667 101.333 58.6667 103.733 58.6667 106.667ZM31.9467 24.4267C29.8667 22.3467 26.4534 22.3467 24.4267 24.4267C22.3467 26.5067 22.3467 29.92 24.4267 31.9467L30.08 37.6C32.16 39.68 35.5734 39.68 37.6 37.6C39.6267 35.52 39.68 32.1067 37.6 30.08L31.9467 24.4267ZM97.92 90.4C95.84 88.32 92.4267 88.32 90.4 90.4C88.32 92.48 88.32 95.8933 90.4 97.92L96.0534 103.573C98.1334 105.653 101.547 105.653 103.573 103.573C105.653 101.493 105.653 98.08 103.573 96.0533L97.92 90.4ZM103.573 31.9467C105.653 29.8667 105.653 26.4533 103.573 24.4267C101.493 22.3467 98.08 22.3467 96.0534 24.4267L90.4 30.08C88.32 32.16 88.32 35.5733 90.4 37.6C92.48 39.6267 95.8934 39.68 97.92 37.6L103.573 31.9467ZM37.6 97.92C39.68 95.84 39.68 92.4267 37.6 90.4C35.52 88.32 32.1067 88.32 30.08 90.4L24.4267 96.0533C22.3467 98.1333 22.3467 101.547 24.4267 103.573C26.5067 105.6 29.92 105.653 31.9467 103.573L37.6 97.92Z" fill="#FFA800"/>
</svg>
